<svg xmlns="http://www.w3.org/2000/svg" viewBox="0 0 1195 439" fill="none">
    <path
        fill="currentColor"
        fill-rule="evenodd"
        d="M325.25 11.785 315 12.07v2.715c.002 9.577-3.279 69.821-3.827 70.29-.37.316-15.748 3.598-34.173 7.294-18.425 3.696-35.016 7.044-36.87 7.44-3.013.644-4.346 2.254-12.585 15.205-15.823 24.872-64.104 101.228-67.455 106.68-2.787 4.533-3.155 5.934-2.892 11l.302 5.806 167 .244 167 .244 33-40.712c18.15-22.391 48.7-60.076 67.889-83.744 19.188-23.667 34.985-43.154 35.103-43.302.118-.149 31.191 37.539 69.051 83.75L765.379 239h24.933c23.461 0 24.852-.102 23.56-1.723-.754-.948-21.184-25.135-45.398-53.75-24.215-28.615-62.624-74.006-85.354-100.869-40.698-48.099-41.375-48.833-44.473-48.268-2.735.499-90.577 13.597-198.647 29.621-18.425 2.732-34.962 5.218-36.75 5.524l-3.25.556V143.714l-8.244.565c-4.535.311-8.456.355-8.713.097-.258-.258-1.122-30.035-1.921-66.172-.895-40.533-1.83-65.954-2.44-66.358-.946-.625-31.857-.661-53.432-.061M743 57.042c-28.325.973-52.775 1.923-54.333 2.113-2.735.333-1.778 1.712 27.871 40.138 16.886 21.887 31.037 39.662 31.447 39.5.41-.161 12.168-10.534 26.13-23.052L799.5 92.982l4.5 4.759c3.774 3.992 65.449 74.54 111.033 127.009l12.38 14.25h24.948c23.672 0 24.871-.09 23.432-1.75-.834-.963-32.975-37.975-71.425-82.25-38.45-44.275-73.713-84.888-78.363-90.25L817.552 55l-11.526.137c-6.339.076-34.701.933-63.026 1.905m30 94.976v14.079l12.25-.298 12.25-.299v-27l-12.25-.281-12.25-.281v14.08m36-.018v14.062l12.25-.281 12.25-.281v-27l-12.25-.281-12.25-.281V152m-215.002 5.75L594 173h26V143.111l-13.002-.305-13.002-.306.002 15.25m39.002.279v15.029l13.25-.279 13.25-.279.277-14.75.276-14.75H633v15.029m150.605 27.221a9147.47 9147.47 0 0 1 9.84 11.982c1.68 2.053 3.392 3.74 3.805 3.75.413.01.75-5.382.75-11.982v-12H776.821l6.784 8.25m25.41 11 .015 19.25 3.235 3.705c3.18 3.641 3.393 3.716 12.485 4.379l9.25.674V177h-25l.015 19.25M594 210.5V236h26v-51h-26v25.5m39 .5v26.058l13.25-.279 13.25-.279v-51l-13.25-.279-13.25-.279V211m-270.5 86.874c-13.373 3.528-16.764 12.318-9.751 25.281.195.361-1.356 1.204-3.447 1.874-13.317 4.268-17.772 17.89-8.625 26.372 4.831 4.48 11.401 6.07 24.823 6.01 10.367-.047 13.073-.424 19.886-2.771 4.337-1.495 8.789-3.349 9.891-4.122 1.786-1.25 2.657-1.075 7.947 1.595 10.667 5.385 10.299 5.376 13.261.323 2.407-4.108 2.618-6.436.583-6.436-.448 0-2.945-.943-5.551-2.095l-4.737-2.096 3.461-3.654c1.903-2.01 4.198-4.761 5.099-6.113l1.639-2.457-5.739-2.144-5.74-2.144-3.852 4.371c-6.066 6.883-6.35 6.922-16.354 2.237l-8.794-4.118 6.756-2.33c13.833-4.77 18.793-11.945 13.855-20.043-3.134-5.139-9.939-7.666-21.611-8.024-5.5-.169-11.35.049-13 .484m86.884.48c-6.637 1.685-13.683 5.855-16.761 9.918-3.799 5.015-5.979 13.943-5.321 21.792 1.271 15.153 8.658 23.124 24.554 26.493 16.33 3.461 34.642-.092 42.335-8.215 3.125-3.3 6.755-10.837 6.787-14.092.021-2.102-.4-2.25-6.4-2.25-6.4 0-6.427.012-7.529 3.353-2.474 7.494-9.418 10.829-22.549 10.829-17.067 0-23.699-5.453-23.632-19.431.04-8.256 2.429-12.59 8.684-15.751 4.295-2.17 6.267-2.5 14.948-2.5 13.233 0 18.377 2.268 21.733 9.584l2.255 4.916h6.256c7.161 0 7.371-.372 4.674-8.286-2.105-6.179-8.186-12.092-15.241-14.82-7.06-2.73-26.686-3.598-34.793-1.54m121.64.185c-15.494 4.346-22.267 12.96-22.433 28.529-.081 7.654.23 9.195 2.919 14.457 5.606 10.967 15.674 15.98 31.99 15.93 10.258-.032 17.102-1.936 23.428-6.518 4.023-2.914 4.072-2.923 4.086-.693.035 5.772.923 6.756 6.103 6.756H622v-32h-37v10h12c6.6 0 12 .389 12 .865 0 1.869-4.398 6.302-8.345 8.413-3.536 1.891-5.719 2.222-14.655 2.222-11.827 0-16.957-1.823-20.963-7.448-4.289-6.023-4.239-17.151.104-23.25 3.709-5.209 9.833-7.302 21.359-7.301 8.823 0 10.53.297 14.5 2.516 2.749 1.536 5.278 3.967 6.5 6.246 1.981 3.697 2.058 3.732 8.25 3.734 6.064.003 6.25-.074 6.25-2.596 0-6.674-8.134-15.834-16.805-18.923-6.759-2.408-26.956-2.963-34.171-.939m157.224-.154c-15.231 3.856-23.302 15.506-21.946 31.679.696 8.305 2.765 13.378 7.389 18.124 7.309 7.5 22.326 11.11 37.675 9.057 11.045-1.478 17.724-4.404 22.539-9.874 4.758-5.405 6.626-11.618 6.488-21.569-.187-13.339-5.579-21.323-17.584-26.032-6.725-2.638-26.486-3.43-34.561-1.385M284 303.5v5.5h30.155l-.328 13.431c-.352 14.462-.985 16.358-6.942 20.805-5.465 4.08-24.305 4.08-29.77 0-4.15-3.098-6.308-6.767-6.86-11.664l-.525-4.657-6.615.292-6.615.293.319 4c.868 10.891 5.138 17.864 13.42 21.916 14.069 6.883 37.291 5.519 48.242-2.834 1.85-1.411 4.624-5.14 6.163-8.287 2.715-5.55 2.812-6.305 3.196-25.009l.397-19.286H284v5.5m346 24V357h13v-16l14.25.026 14.25.026 4.826 7.974 4.826 7.974h15.736l-5.436-8.75c-4.749-7.644-5.231-8.876-3.81-9.75 7.855-4.831 11.368-10.783 11.336-19.21-.038-10.074-5.367-17.915-13.759-20.246-2.113-.587-14.842-1.035-29.469-1.038L630 298v29.5m158.161-10.25c.33 18.386.465 19.505 3.005 24.931 5.137 10.972 14.776 15.254 34.334 15.254 19.539 0 28.715-4.061 34.141-15.112 2.796-5.695 2.867-6.246 3.201-25.073l.342-19.25H849v18.352c0 17.363-.121 18.535-2.251 21.75-1.245 1.879-4.403 4.465-7.063 5.784-4.039 2.004-6.316 2.387-14.186 2.387s-10.147-.383-14.186-2.387c-2.66-1.319-5.818-3.905-7.063-5.784-2.13-3.215-2.251-4.387-2.251-21.75V298h-14.184l.345 19.25M871 327.5V357h14v-15.766l19.75-.47c21.43-.508 24.327-1.137 29.679-6.439 3.853-3.818 5.729-8.627 5.785-14.834.062-6.912-1.581-11.486-5.483-15.262-6.117-5.921-7.957-6.229-37.199-6.229H871v29.5m-505.5-19.305c-4.214 2.389-4.671 6.333-1.201 10.366 2.268 2.637 2.374 2.656 7.943 1.409 11.725-2.624 17.106-8.464 10.758-11.676-3.098-1.567-14.794-1.633-17.5-.099m367.146.848c-8.908 2.239-12.893 8.014-12.832 18.594.076 13.295 6.844 18.545 23.903 18.545 7.804 0 10.116-.386 14.013-2.341 6.678-3.35 8.63-6.513 9.094-14.741.821-14.516-5.013-20.061-21.778-20.7-4.7-.179-10.28.11-12.4.643M643 318.939V329h37.154l3.048-3.048c2.732-2.732 2.994-3.52 2.533-7.612-.315-2.795-1.342-5.393-2.65-6.702-2.007-2.009-3.279-2.157-21.11-2.449l-18.975-.31v10.06M885 319v10h17.453c10.661 0 18.401-.432 19.89-1.11 5.396-2.459 6.36-11.341 1.734-15.967L921.154 309H885v10m-531.235 14.06c-7.018 3.706-5.665 10.803 2.482 13.017 5.422 1.473 18.066.655 23.231-1.503l3.942-1.647-10.904-5.964c-5.997-3.28-11.829-5.943-12.96-5.919-1.131.025-3.737.932-5.791 2.016M7 413v17h3.5c3.481 0 3.5-.024 3.5-4.5V421l9.75-.006c11.954-.006 16.361-1.148 19.686-5.1 4.803-5.709 2.655-15.704-3.97-18.473-2.411-1.007-7.637-1.421-17.934-1.421H7v17m44 0v17h35v-5.944l-13.75-.278-13.75-.278-.278-13.75-.278-13.75H51v17m39.022-6.25c.038 18.752 4.048 23.184 21.016 23.228 6.902.018 9.389-.409 12.977-2.228 6.649-3.37 8.044-6.609 8.715-20.232l.567-11.518H125v9.953c0 11.418-.979 14.335-5.54 16.499-6.463 3.067-17.969 1.203-20.38-3.302-.594-1.11-1.08-6.773-1.08-12.584V396h-8l.022 10.75M137 413v17h7.938l.281-12.003.281-12.002 7.37 12.057c7.05 11.535 7.503 12.044 10.442 11.752 2.742-.271 3.83-1.539 10.13-11.804l7.058-11.5.282 11.75.281 11.75H189v-34h-10.759l-7.503 12.591-7.504 12.591-5.425-8.841a3740.623 3740.623 0 0 1-7.698-12.591c-2.178-3.592-2.502-3.75-7.693-3.75H137v17m57 .062v17.062l18.475-.312c17.22-.291 18.617-.455 20.575-2.415 1.156-1.157 2.339-3.879 2.63-6.049.432-3.218.068-4.495-1.976-6.923-2.223-2.642-2.347-3.192-1.104-4.892 2.314-3.165 1.709-7.378-1.523-10.61L228.154 396H194v17.062m46-.062v17h8v-34h-8v17m13 0v17h7l.051-13.25.051-13.25 12.746 13.25L285.594 430H296v-34h-7l-.051 13.25-.051 13.25-12.746-13.25L263.406 396H253v17m56.97-14.75c-6.268 3.167-8.97 7.609-8.97 14.75 0 4.269.566 6.536 2.25 9.01 4.108 6.036 7.027 7.455 16.073 7.815 7.212.287 8.738.025 12.927-2.221l4.75-2.548v2.472c0 2.08.476 2.472 3 2.472h3v-18h-21v2.5c0 2.41.233 2.5 6.5 2.5 7.554 0 8.664 1.71 3.25 5.011-4.747 2.894-14.321 2.753-18.819-.278-6.858-4.622-5.834-15.204 1.78-18.386 6.837-2.856 18.446-.578 19.868 3.901.671 2.117 8.423 2.579 8.417.502-.008-2.914-4.288-7.98-8.267-9.786-6.293-2.857-18.825-2.712-24.759.286m74.03-1.544c-5.1 1.865-7.456 7.704-4.977 12.337.871 1.628.538 2.114-2.25 3.279-7.775 3.25-8.579 11.387-1.548 15.674 4.604 2.807 17.579 2.797 25.104-.018 5.379-2.012 5.424-2.013 9.966-.066l4.562 1.956 1.677-2.56c1.834-2.8 1.222-3.724-3.257-4.919l-2.224-.592 2.474-3.243c3.09-4.052 3.08-4.373-.191-5.616-2.333-.887-3.075-.614-5.982 2.204l-3.319 3.216-5.117-2.397-5.118-2.396 4.337-1.843c5.832-2.476 7.863-4.492 7.863-7.806 0-3.079-2.069-5.612-5.72-7-2.573-.978-13.783-1.123-16.28-.21M446 413v17h8v-14h29v14h8v-34h-8v14h-29v-14h-8v17m58.401-15.095c-6.376 2.896-8.901 7.228-8.901 15.272 0 7.98 1.867 11.173 8.52 14.573 3.492 1.784 6.076 2.25 12.48 2.25 10.598 0 15.969-2.502 19.321-9 1.854-3.593 2.221-5.557 1.823-9.743-.999-10.513-7.531-15.213-21.144-15.213-5.667 0-9.195.543-12.099 1.861M542 413v17h7.938l.281-12.003.281-12.002 7.37 12.057c7.05 11.535 7.503 12.044 10.442 11.752 2.738-.271 3.825-1.531 10.004-11.596 3.813-6.211 7.079-11.146 7.258-10.967.179.178.4 5.372.491 11.542l.167 11.217H594v-34h-10.743l-7.175 12c-3.947 6.6-7.513 12-7.926 12-.413 0-4.028-5.4-8.032-12l-7.282-12H542v17m57 0v17h36v-6h-28v-8h28v-6h-28v-8h28v-6h-36v17m63 0v17h8v-34h-8v17m12-.05V430h7.938l.281-12.189.281-12.19 7.47 12.19c6.924 11.298 7.691 12.187 10.5 12.158 2.789-.029 3.626-1.003 10.53-12.25l7.5-12.219.281 12.25.281 12.25H726v-34l-5.25.017-5.25.016-7.473 12.427c-4.111 6.835-7.636 12.264-7.835 12.065-.199-.198-3.62-5.685-7.603-12.193l-7.243-11.832-5.673-.3-5.673-.3v17.05m57-.019V430h8v-8.789l11.927-.356c13.617-.405 16.461-1.652 19.002-8.328 1.24-3.258 1.24-4.295.001-7.802-2.604-7.366-4.794-8.179-23-8.544l-15.93-.319v17.069m44 .069v17h8v-9h15.81l2.637 4.5c2.508 4.28 2.858 4.5 7.154 4.5 3.341 0 4.325-.325 3.778-1.25a409.368 409.368 0 0 0-3.154-5.132c-1.938-3.113-2.15-4.05-1.071-4.734.74-.47 1.672-.86 2.07-.869 1.508-.032 4.005-6.519 3.953-10.27-.03-2.15-.792-5.034-1.693-6.41-2.857-4.359-7.054-5.335-22.952-5.335H775v17m51.985-14.75c-5.892 2.986-8.185 7.119-8.185 14.75 0 11.611 6.423 17 20.263 17 11.769 0 17.599-2.755 20.566-9.718 3.997-9.38-.412-20.09-9.528-23.143-6.037-2.023-18.076-1.444-23.116 1.111m41.809 5a2153.754 2153.754 0 0 1 9.179 17l5.205 9.75 5.161-.009 5.161-.009 8.75-16.341c4.813-8.987 8.75-16.659 8.75-17.048 0-.39-1.841-.57-4.092-.4l-4.092.307-7.109 13.336c-5.859 10.991-7.309 13.062-8.246 11.78-.626-.856-4.013-6.969-7.528-13.586l-6.39-12.03h-8.724l3.975 7.25M916 413v17h36v-6h-28v-8h28v-6h-28v-8h28v-6h-36v17m40 0v17h8v-24.462l7.633 12.284c7.285 11.726 7.772 12.271 10.692 11.981 2.725-.27 3.828-1.557 10.117-11.803l7.058-11.5.282 11.75.281 11.75H1008v-34h-10.743l-7.175 12c-3.947 6.6-7.513 12-7.926 12-.413 0-4.028-5.4-8.032-12l-7.282-12H956v17m57 0v17h36v-6h-28v-8h28v-6h-27.773l-.417-2.84c-.749-5.101-.586-5.16 14.273-5.16H1049v-6h-36v17m40 0v17h8.114l-.307-12.502c-.169-6.876-.075-12.501.208-12.5.283.001 6.127 5.627 12.985 12.502l12.47 12.5H1097v-34h-8v26.353l-12.595-13.177L1063.811 396H1053v17m48-14.04v2.959l8.25.291 8.25.29.278 13.75.278 13.75H1126v-28h17v-6h-42v2.96m53.295-1.853c-3.842 1.111-6.295 4.299-6.295 8.181 0 6.798 4.728 9.162 21.207 10.604 11.799 1.032 12.793 1.353 12.793 4.132 0 2.997-3.17 3.976-12.869 3.976-10.14 0-13.663-.951-14.613-3.943-.492-1.55-1.499-2.057-4.085-2.057-2.943 0-3.433.338-3.433 2.365 0 3.499 3.339 7.12 7.798 8.456 6.321 1.894 24.998 1.528 29.201-.573 4.451-2.224 6.536-6.365 5.345-10.616-1.305-4.657-6.094-6.555-19.231-7.623-11.384-.925-15.113-2.038-15.113-4.509 0-2.723 3.988-3.694 13.737-3.343 8.564.309 9.671.569 11.014 2.593 1.821 2.744 8.249 3.277 8.249.684 0-6.247-6.964-9.414-20.5-9.322-5.5.038-11.442.485-13.205.995m-767.194 5.61c-2.074 1.68-2.215 2.202-1.136 4.218 1.064 1.988 1.785 2.228 5.28 1.759 4.642-.623 8.825-4.024 7.087-5.762-2.149-2.149-8.688-2.274-11.231-.215m-372.351-.166c-.412.43-.75 3.182-.75 6.116V414h10.977c10.476 0 11.049-.109 12.546-2.394 1.842-2.811 1.116-7.135-1.363-8.121-2.581-1.027-20.569-1.811-21.41-.934M202 405.968V410h10.878c11.736 0 13.58-.74 12.949-5.195-.318-2.239-.666-2.313-12.077-2.587l-11.75-.281v4.031m306.329-2.51c-1.744.758-3.657 2.286-4.25 3.395-1.391 2.598-1.39 9.698.001 12.297 3.602 6.729 22.305 6.229 24.926-.667 1.308-3.438 1.265-9.107-.086-11.633-2.37-4.428-13.86-6.32-20.591-3.392M739 407.849V414h10.429c8.147 0 10.772-.344 12-1.571 1.955-1.956 2.046-6.79.157-8.358-.778-.645-6.178-1.443-12-1.773L739 401.699v6.15m44 .02V414h10.345c8.752 0 10.6-.282 12-1.829 2.006-2.217 2.123-5.149.303-7.637-1.124-1.538-3.141-1.929-12-2.323L783 401.738v6.131m48.476-4.473c-7.592 3.307-7.147 16.78.643 19.496 7.096 2.473 17.529.502 19.801-3.742.594-1.11 1.08-3.878 1.08-6.15 0-2.272-.486-5.04-1.08-6.15-2.345-4.381-13.854-6.326-20.444-3.454M381.009 416.29c-3.11 1.573-3.799 4.659-1.427 6.394 2.164 1.582 11.19 1.734 15.083.253l2.795-1.062-6.434-3.438c-7.357-3.93-6.75-3.8-10.017-2.147M202 420v4.06l12.75-.28 12.75-.28v-7l-12.75-.28-12.75-.28V420"/>
</svg>
