<svg id="eT9WIS74Fyn1" xmlns="http://www.w3.org/2000/svg" xmlns:xlink="http://www.w3.org/1999/xlink" viewBox="0 0 96 96" shape-rendering="geometricPrecision" text-rendering="geometricPrecision" project-id="a9964cc9330d47c5b9ce8c1e9f4b75d6" export-id="67ea5b6427ba483c8a0be75d5b37d43d" cached="false"><path d="M0,0h96v96h-96L0,0Z" fill="#fff"/><path d="M24,20c2.209139,0,4,1.790861,4,4s-1.790861,4-4,4-4-1.790861-4-4s1.790861-4,4-4Zm0,48c2.209139,0,4,1.790861,4,4s-1.790861,4-4,4-4-1.790861-4-4s1.790861-4,4-4Zm48,0c2.209139,0,4,1.790861,4,4s-1.790861,4-4,4-4-1.790861-4-4s1.790861-4,4-4Zm0-48c2.209139,0,4,1.790861,4,4s-1.790861,4-4,4-4-1.790861-4-4s1.790861-4,4-4Z" fill="#1a386a"/></svg>
